<?xml version="1.0" encoding="UTF-8"?><svg id="a" xmlns="http://www.w3.org/2000/svg" viewBox="0 0 24 24"><defs><style>.f{fill:#e4e3e6;stroke-width:0px;}</style></defs><path id="b" class="f" d="m22,13h-7V2h7v11Zm0-13h-7c-1.1,0-2,.9-2,2v11c0,1.1.9,2,2,2h7c1.1,0,2-.9,2-2V2c0-1.1-.9-2-2-2"/><path id="c" class="f" d="m9,6H2V2h7v4Zm0-6H2C.9,0,0,.9,0,2v4c0,1.1.9,2,2,2h7c1.1,0,2-.9,2-2V2c0-1.1-.9-2-2-2"/><path id="d" class="f" d="m9,22H2v-10h7v10Zm0-12H2c-1.1,0-2,.9-2,2v10c0,1.1.9,2,2,2h7c1.1,0,2-.9,2-2v-10c0-1.1-.9-2-2-2"/><path id="e" class="f" d="m22,22h-7v-3h7v3Zm0-5h-7c-1.1,0-2,.9-2,2v3c0,1.1.9,2,2,2h7c1.1,0,2-.9,2-2v-3c0-1.1-.9-2-2-2"/></svg>