<?xml version="1.0" encoding="UTF-8"?><svg id="a" xmlns="http://www.w3.org/2000/svg" viewBox="0 0 24 24"><defs><style>.f{fill:#e4e3e6;stroke-width:0px;}</style></defs><path id="b" class="f" d="m9,9H2V2h7v7Zm0-9H2C.9,0,0,.9,0,2v7c0,1.1.9,2,2,2h7c1.1,0,2-.9,2-2V2c0-1.1-.9-2-2-2"/><path id="c" class="f" d="m22,9h-7V2h7v7Zm0-9h-7c-1.1,0-2,.9-2,2v7c0,1.1.9,2,2,2h7c1.1,0,2-.9,2-2V2c0-1.1-.9-2-2-2"/><path id="d" class="f" d="m9,22H2v-7h7v7Zm0-9H2c-1.1,0-2,.9-2,2v7c0,1.1.9,2,2,2h7c1.1,0,2-.9,2-2v-7c0-1.1-.9-2-2-2"/><path id="e" class="f" d="m22,22h-7v-7h7v7Zm0-9h-7c-1.1,0-2,.9-2,2v7c0,1.1.9,2,2,2h7c1.1,0,2-.9,2-2v-7c0-1.1-.9-2-2-2"/></svg>