<?xml version="1.0" encoding="UTF-8"?><svg id="a" xmlns="http://www.w3.org/2000/svg" viewBox="0 0 24 24"><defs><style>.e{fill:#e4e3e6;stroke-width:0px;}</style></defs><path id="b" class="e" d="m5,22h-2v-5h2v5Zm0-7h-2c-1.1,0-2,.9-2,2v5c0,1.1.9,2,2,2h2c1.1,0,2-.9,2-2v-5c0-1.1-.9-2-2-2"/><path id="c" class="e" d="m13,22h-2v-10h2v10Zm0-12h-2c-1.1,0-2,.9-2,2v10c0,1.1.9,2,2,2h2c1.1,0,2-.9,2-2v-10c0-1.1-.9-2-2-2"/><path id="d" class="e" d="m21,22h-2V2h2v20Zm0-22h-2c-1.1,0-2,.9-2,2v20c0,1.1.9,2,2,2h2c1.1,0,2-.9,2-2V2c0-1.1-.9-2-2-2"/></svg>