<?xml version="1.0" encoding="UTF-8"?><svg id="a" xmlns="http://www.w3.org/2000/svg" viewBox="0 0 24 24"><defs><style>.k{fill:#e4e3e6;stroke-width:0px;}</style></defs><path id="b" class="k" d="m2,2v20h20V2H2m0-2h20c1.1,0,2,.9,2,2v20c0,1.1-.9,2-2,2H2c-1.1,0-2-.9-2-2V2C0,.9.9,0,2,0Z"/><path id="c" class="k" d="m6,7h-2v-2h2v2Z"/><path id="d" class="k" d="m6,11h-2v-2h2v2Z"/><path id="e" class="k" d="m6,15h-2v-2h2v2Z"/><path id="f" class="k" d="m6,19h-2v-2h2v2Z"/><path id="g" class="k" d="m20,7h-12v-2h12v2Z"/><path id="h" class="k" d="m20,11h-12v-2h12v2Z"/><path id="i" class="k" d="m20,15h-12v-2h12v2Z"/><path id="j" class="k" d="m20,19h-12v-2h12v2Z"/></svg>