<?xml version="1.0" encoding="UTF-8"?><svg id="a" xmlns="http://www.w3.org/2000/svg" viewBox="0 0 24 24"><defs><style>.d{fill:#e4e3e6;stroke-width:0px;}</style></defs><path id="b" class="d" d="m12.16,2l.48,1.35c.52,1.46,1.9,2.43,3.45,2.44.54,0,1.08-.12,1.57-.36l1.3-.62.22.22-.62,1.3c-.87,1.83-.09,4.01,1.73,4.88.11.05.23.1.35.14l1.36.48v.32l-1.35.48c-1.91.68-2.9,2.77-2.22,4.68.04.12.09.23.14.35l.62,1.3-.22.22-1.3-.62c-.49-.23-1.03-.36-1.57-.35-1.55,0-2.93.98-3.45,2.44l-.48,1.35h-.32l-.48-1.35c-.52-1.46-1.9-2.43-3.45-2.44-.54,0-1.08.12-1.57.35l-1.3.62-.22-.22.62-1.3c.87-1.83.09-4.01-1.73-4.88-.11-.05-.23-.1-.35-.14l-1.35-.48v-.32l1.35-.48c1.91-.68,2.9-2.77,2.22-4.68-.04-.12-.09-.23-.14-.35l-.62-1.3.22-.22,1.3.62c.49.23,1.03.36,1.57.36,1.55,0,2.93-.98,3.45-2.44l.48-1.35h.32Zm1.41-2h-3.14l-.95,2.68c-.31.87-1.26,1.32-2.12,1.01-.05-.02-.1-.04-.15-.06l-2.58-1.23-2.22,2.22,1.23,2.58c.39.83.04,1.82-.79,2.22-.05.02-.1.05-.16.06l-2.68.95v3.14l2.68.95c.87.31,1.32,1.26,1.01,2.13-.02.05-.04.1-.06.15l-1.23,2.58,2.22,2.22,2.58-1.22c.83-.39,1.82-.04,2.22.79.02.05.05.1.07.16l.95,2.68h3.14l.95-2.68c.31-.87,1.26-1.32,2.12-1.01.05.02.11.04.16.07l2.57,1.22,2.22-2.22-1.22-2.58c-.39-.83-.04-1.82.79-2.22.05-.02.1-.05.16-.07l2.68-.95v-3.14l-2.68-.95c-.87-.31-1.32-1.26-1.01-2.12.02-.05.04-.1.06-.15l1.23-2.58-2.22-2.22-2.58,1.23c-.83.39-1.82.04-2.22-.79-.02-.05-.05-.1-.07-.16l-.95-2.68Z"/><path id="c" class="d" d="m12,9c1.66,0,3,1.34,3,3s-1.34,3-3,3-3-1.34-3-3,1.34-3,3-3m0-2c-2.76,0-5,2.24-5,5s2.24,5,5,5,5-2.24,5-5-2.24-5-5-5"/></svg>